<?xml version="1.0" encoding="iso-8859-1"?>
<!-- Generator: Adobe Illustrator 19.0.0, SVG Export Plug-In . SVG Version: 6.00 Build 0)  -->
<svg version="1.1" id="Capa_1" xmlns="http://www.w3.org/2000/svg" xmlns:xlink="http://www.w3.org/1999/xlink" x="0px" y="0px"
	 viewBox="0 0 512 512" style="enable-background:new 0 0 512 512;" xml:space="preserve">
<circle style="fill:#43A0D8;" cx="256" cy="256" r="256"/>
<path style="fill:#F7F7F7;" d="M481.056,378.107V133.893c-14.907-27.418-34.684-51.802-58.161-72.006H89.105
	c-23.478,20.204-43.254,44.589-58.161,72.007v244.212C74.308,457.863,158.831,512,256,512S437.692,457.863,481.056,378.107z"/>
<path style="fill:#DFE1E5;" d="M86.42,64.251c-22.298,19.734-41.143,43.281-55.477,69.643v244.212
	c14.336,26.367,33.174,49.931,55.477,69.668V64.251z"/>
<path style="fill:#616B84;" d="M441.822,61.887H70.178c-21.579,0-39.235,17.655-39.235,39.234v44.115h450.113v-44.115
	C481.056,79.542,463.401,61.887,441.822,61.887z"/>
<path style="fill:#515A71;" d="M125.655,61.887H70.178c-21.579,0-39.235,17.655-39.235,39.234v44.115H86.42v-44.115
	C86.42,79.542,104.076,61.887,125.655,61.887z"/>
<rect x="30.943" y="145.24" style="fill:#41485D;" width="450.11" height="38.978"/>
<rect x="30.943" y="145.24" style="fill:#F3A225;" width="107.83" height="38.978"/>
<rect x="30.943" y="145.24" style="fill:#E08610;" width="55.48" height="38.978"/>
<path style="fill:#616B84;" d="M119.608,472.661h272.784c17.854-11.263,34.227-24.662,48.74-39.855V230.245
	c0-3.947-3.2-7.148-7.148-7.148H78.015c-3.947,0-7.148,3.201-7.148,7.148v202.562C85.381,448,101.753,461.398,119.608,472.661z"/>
<path style="fill:#515A71;" d="M93.012,231.299c0-4.53,3.673-8.202,8.202-8.202H78.015c-3.947,0-7.148,3.201-7.148,7.148v202.562
	c6.964,7.29,14.367,14.154,22.145,20.58C93.012,453.387,93.012,231.299,93.012,231.299z"/>
<path style="fill:#41485D;" d="M70.868,432.807c1.974,2.066,3.988,4.092,6.029,6.09h33.886c2.416,0,4.374-1.958,4.374-4.374V297.052
	H70.868V432.807z"/>
<path style="fill:#343B4C;" d="M93.012,297.052H70.868v135.755c1.975,2.068,3.995,4.091,6.039,6.09h16.106L93.012,297.052
	L93.012,297.052z"/>
<path style="fill:#F3A225;" d="M70.868,263.64v34.604h44.29V263.64c0-2.416-1.958-4.374-4.374-4.374H75.241
	C72.826,259.266,70.868,261.224,70.868,263.64z"/>
<path style="fill:#E08610;" d="M93.012,259.266H75.241c-2.415,0-4.373,1.958-4.373,4.374v34.604h22.145L93.012,259.266
	L93.012,259.266z"/>
<circle style="fill:#F55479;" cx="86.42" cy="103.35" r="12.94"/>
<circle style="fill:#FEC63B;" cx="123.28" cy="103.35" r="12.94"/>
<circle style="fill:#40C488;" cx="160.13" cy="103.35" r="12.94"/>
<path style="fill:#7D899E;" d="M363.888,112.503H203.335c-4.938,0-8.941-4.003-8.941-8.941c0-4.939,4.003-8.941,8.941-8.941h160.553
	c4.938,0,8.941,4.003,8.941,8.941C372.83,108.501,368.827,112.503,363.888,112.503z"/>
<path style="fill:#ED335F;" d="M433.984,223.097h-72.098V263.2h79.246v-32.955C441.133,226.297,437.932,223.097,433.984,223.097z"/>
<rect x="361.89" y="263.2" style="fill:#F55479;" width="79.25" height="42.19"/>
<rect x="361.89" y="305.39" style="fill:#F3A225;" width="79.25" height="42.19"/>
<rect x="361.89" y="347.58" style="fill:#FEC63B;" width="79.25" height="42.19"/>
<rect x="361.89" y="389.77" style="fill:#40C488;" width="79.25" height="42.19"/>
<path style="fill:#43A0D8;" d="M441.133,432.807v-0.844h-79.246v40.699h30.505C410.247,461.398,426.619,448,441.133,432.807z"/>
<rect x="361.89" y="223.1" style="fill:#DB2659;" width="39.623" height="40.1"/>
<rect x="361.89" y="263.2" style="fill:#ED335F;" width="39.623" height="42.19"/>
<rect x="361.89" y="305.39" style="fill:#E08610;" width="39.623" height="42.19"/>
<rect x="361.89" y="347.58" style="fill:#F3A225;" width="39.623" height="42.19"/>
<rect x="361.89" y="389.77" style="fill:#37B77A;" width="39.623" height="42.19"/>
<path style="fill:#238CC1;" d="M401.51,431.963h-39.623v40.699h30.505c3.09-1.949,6.118-3.985,9.117-6.061L401.51,431.963
	L401.51,431.963z"/>
<g>
</g>
<g>
</g>
<g>
</g>
<g>
</g>
<g>
</g>
<g>
</g>
<g>
</g>
<g>
</g>
<g>
</g>
<g>
</g>
<g>
</g>
<g>
</g>
<g>
</g>
<g>
</g>
<g>
</g>
</svg>
